<svg height="512" viewBox="0 0 60 60" width="512" xmlns="http://www.w3.org/2000/svg"><g id="Page-1" fill="none" fill-rule="evenodd"><g id="020---Gas-Hob" fill-rule="nonzero"><path id="Shape" d="m16 49h28c2.7614237 0 5 2.2385763 5 5v5h-38v-5c0-2.7614237 2.2385763-5 5-5z" fill="#e8edfc"/><path id="Shape" d="m44 49h-3c2.7614237 0 5 2.2385763 5 5v5h3v-5c0-2.7614237-2.2385763-5-5-5z" fill="#cad9fc"/><path id="Shape" d="m35 43.25v5.75h-10v-5.78c1.5414931.499366 3.1497359.7623491 4.77.78 1.7717072.0231763 3.5362064-.2298589 5.23-.75z" fill="#a4c2f7"/><path id="Shape" d="m32 43.871v5.129h3v-5.75c-.979012.2978882-1.9831816.5057513-3 .621z" fill="#7facfa"/><path id="Shape" d="m41 34.6c.0109747 2.5333002-.8112401 4.9999446-2.34 7.02v.01c-1.1485627.6887949-2.3778899 1.2329234-3.66 1.62-1.6937936.5201411-3.4582928.7731763-5.23.75-1.6202641-.0176509-3.2285069-.280634-4.77-.78-1.2647493-.391148-2.4770421-.9351686-3.61-1.62-1.6040645-2.0828394-2.4474138-4.6517027-2.39-7.28.17-8.3 7.65-15.5 11-18.32 3.4 2.85 11 10.19 11 18.6z" fill="#e8edfc"/><path id="Shape" d="m30 16c-.437.368-.946.813-1.5 1.323 3.736 3.442 9.5 9.952 9.5 17.277.0109747 2.5333002-.8112401 4.9999446-2.34 7.02v.01c-1.1485627.6887949-2.3778899 1.2329234-3.66 1.62-1.1542635.3525196-2.3431049.5798277-3.546.678.434.041.873.067 1.316.072 1.7717072.0231763 3.5362064-.2298589 5.23-.75 1.2821101-.3870766 2.5114373-.9312051 3.66-1.62v-.01c1.5287599-2.0200554 2.3509747-4.4866998 2.34-7.02 0-8.41-7.6-15.75-11-18.6z" fill="#cad9fc"/><path id="Shape" d="m47 27c.0069591 6.0068528-3.1658237 11.5687334-8.34 14.62 1.5287599-2.0200554 2.3509747-4.4866998 2.34-7.02 0-8.41-7.6-15.75-11-18.6-3.35 2.82-10.83 10.02-11 18.32-.0574138 2.6282973.7859355 5.1971606 2.39 7.28-5.283555-3.1391505-8.4840641-8.8649718-8.39-15.01.28-12.9 13.48-23.29 16.42-25.4.3462756-.24994296.8137244-.24994296 1.16 0 2.97 2.13 16.42 12.72 16.42 25.81z" fill="#e8edfc"/><path id="Shape" d="m30.58 1.19c-.3462756-.24994296-.8137244-.24994296-1.16 0-.24.172-.555.406-.92.686 4.145 3.18 15.5 13.093 15.5 25.124.0040996 3.5891059-1.1345525 7.0863196-3.251 9.985-.3392463 1.6823299-1.0532683 3.2665769-2.089 4.635 5.1741763-3.0512666 8.3469591-8.6131472 8.34-14.62 0-13.09-13.45-23.68-16.42-25.81z" fill="#cad9fc"/><path id="Shape" d="m29.919 44c-1.6198854-.0399482-3.1476351-.7618798-4.207-1.988-1.1392348-1.2703307-1.7514551-2.9271163-1.712-4.633.094-4.7 4.17-8.781 6-10.379 1.852 1.618 6 5.773 6 10.541.1176756 3.4370784-2.5635801 6.3234502-6 6.459z" fill="#a4c2f7"/><path id="Shape" d="m30 27c-.409.358-.934.846-1.5 1.433 1.988 2.061 4.5 5.4 4.5 9.108.0597999 2.8496088-1.7720383 5.3953461-4.493 6.244.4591723.1334106.9339298.2057002 1.412.215h.081c3.4364199-.1355498 6.1176756-3.0219216 6-6.459 0-4.768-4.147-8.924-6-10.541z" fill="#7facfa"/><path id="Shape" d="m7 59h-4v-11c.00011327-.5303896.21090125-1.0390145.586-1.414l4.586-4.586c.7809997-.7807639 2.0470003-.7807639 2.828 0 .7807639.7809997.7807639 2.0470003 0 2.828l-4 4z" fill="#a4c2f7"/><path id="Shape" d="m53 59h4v-11c-.0001133-.5303896-.2109013-1.0390145-.586-1.414l-4.586-4.586c-.7809997-.7807639-2.0470003-.7807639-2.828 0-.7807639.7809997-.7807639 2.0470003 0 2.828l4 4z" fill="#a4c2f7"/><path id="Shape" d="m56.414 46.586-4.586-4.586c-.7809997-.7807639-2.0470003-.7807639-2.828 0-.029.029-.05.064-.077.095l4.491 4.491c.3750987.3749855.5858867.8836104.586 1.414v11h3v-11c-.0001133-.5303896-.2109013-1.0390145-.586-1.414z" fill="#7facfa"/><path id="Shape" d="m6 48c.00011327-.5303896.21090125-1.0390145.586-1.414l4.491-4.486c-.027-.031-.048-.066-.077-.095-.7809997-.7807639-2.0470003-.7807639-2.828 0l-4.586 4.581c-.37509875.3749855-.58588673.8836104-.586 1.414v11h3z" fill="#fff"/><path id="Shape" d="m31.5 1.877c-.366-.281-.681-.514-.922-.687-.3462756-.24994296-.8137244-.24994296-1.16 0-7.84 5.633-16.2 15.378-16.418 25.4-.1062933 7.5834839 4.7695634 14.3406087 12 16.63v5.78h3v-5.78c-7.2304366-2.2893913-12.1062933-9.0465161-12-16.63.209-9.632 7.939-18.998 15.5-24.713z" fill="#fff"/><path id="Shape" d="m13.784 18.443 1.855.75c-.9732588 2.3579344-1.5278991 4.8675212-1.639 7.416l-2-.042c.1158357-2.7913825.7196225-5.5409137 1.784-8.124z" fill="#fff"/><g fill="#428dff"><path id="Shape" d="m13.534 23.62c-.3572656.0017863-.6883456-.187162-.8685254-.4956699s-.1820858-.6897057-.005-1c.1770858-.3102942.5062598-.5025438.8635254-.5043301h.01c.5522847 0 1 .4477153 1 1s-.4477153 1-1 1z"/><path id="Shape" d="m18.55 19.85c.133956.0653399.2809588.0995266.43.1.3844318-.0009047.7343105-.2221057.9-.569 2.033286-3.9244115 4.7489887-7.4555022 8.02-10.428.3912724-.3813724.4040049-1.00619113.0285939-1.40318688s-.9999657-.41917681-1.4025939-.04981312c-3.4481577 3.1421845-6.308568 6.8738906-8.447 11.02-.2358286.4974038-.0253067 1.0918712.471 1.33z"/><path id="Shape" d="m1 60h58c.5522847 0 1-.4477153 1-1s-.4477153-1-1-1h-1v-10c.0020882-.796326-.3144184-1.5604067-.879-2.122l-4.586-4.586c-.755851-.7680809-1.8655872-1.0717595-2.9072062-.7955552s-1.8550755 1.0898526-2.1310343 2.1315366c-.2759587 1.0416841.0279815 2.1513487.7962405 2.9070186l3.707 3.708v8.757h-2v-4c-.0033074-3.3123376-2.6876624-5.9966926-6-6h-8v-4.041c1.0630773-.3755491 2.0880258-.8513583 3.061-1.421.034-.015.062-.038.095-.056 1.2665291-.7454242 2.4377807-1.6419959 3.488-2.67 3.439224-3.3741902 5.3705113-7.9939911 5.356-12.812 0-14.142-15.116-25.39-16.84-26.626-.693662-.49758191-1.627338-.49758191-2.321 0-3.187867 2.34356046-6.1042479 5.03555275-8.695 8.026-2.660538 2.9746067-4.8096597 6.3696107-6.36 10.047-.1112714.2443816-.114871.5242442-.0099219.7714068.1049491.2471627.3088115.4389337.5619219.5285932.5106028.1796028 1.0739767-.059181 1.3-.551 1.4681362-3.4762473 3.5023769-6.6850761 6.02-9.496 2.4882773-2.86708987 5.2866985-5.44952545 8.344-7.7 1.661 1.2 16 11.869 16 25 .0075225 4.1457635-1.6076517 8.1298598-4.5 11.1.3277646-1.1379213.496036-2.3158215.5-3.5 0-8.887-7.942-16.5-11.357-19.367-.3720039-.3127385-.9149961-.3127385-1.287 0-3.356 2.826-11.177 10.337-11.356 19.067-.0225242 1.2535764.1412627 2.5035469.486 3.709-2.9533269-3.0509151-4.5663857-7.1546576-4.481-11.4.0056284-.2652332-.0943675-.5218332-.277978-.7133208-.1836106-.1914876-.4357864-.3021678-.701022-.3076792-.5450633.0055605-.9920061.43368-1.021.978-.1007243 4.813707 1.7398607 9.465446 5.107 12.907 1.118645 1.1526108 2.3833951 2.1537873 3.762 2.978.014.008.027.018.042.026.9785829.5848491 2.0113806 1.073787 3.084 1.46v4.063h-8c-3.3123376.0033074-5.9966926 2.6876624-6 6v4h-2v-8.757l3.707-3.707c.768259-.7556699 1.0721992-1.8653345.7962405-2.9070186-.2759588-1.041684-1.0894153-1.8553323-2.1310343-2.1315366-1.04161903-.2762043-2.15135522.0274743-2.9072062.7955552l-4.586 4.585c-.56420452.5618459-.88064293 1.3257621-.879 2.122v10h-1c-.55228475 0-1 .4477153-1 1s.44771525 1 1 1zm52.707-11.878-4-4c-.3789722-.3923789-.3735524-1.0160848.0121814-1.4018186s1.0094397-.3911536 1.4018186-.0121814l4.586 4.585c.1875494.1874927.2929434.4418052.293.707v10h-2v-9.171c-.0000566-.2651948-.1054506-.5195073-.293-.707zm-27.251-6.778c-.9693551-1.0815955-1.4900272-2.4919875-1.456-3.944.076-3.819 3.137-7.286 5-9.047 1.892 1.786 5 5.313 5 9.19.0953606 2.7091683-1.8689761 5.0536019-4.553 5.434-.186 0-.369.021-.556.02-1.325364-.0480761-2.5704869-.6472574-3.435-1.653zm3.544-24.027c3.454 3.019 10 9.738 10 17.283.0032534 2.2460194-.7033955 4.4356158-2.019 6.256-.7570032.4402353-1.5494186.8165406-2.369 1.125.9073504-1.302489 1.3919437-2.852629 1.388-4.44 0-5.194-4.436-9.629-6.343-11.294-.3768631-.3293094-.9391369-.3293094-1.316 0-1.872 1.637-6.238 6-6.341 11.111-.0337671 1.6406315.4566697 3.2492641 1.4 4.592-.7996139-.3031958-1.5731765-.6710812-2.313-1.1-1.4052405-1.8749643-2.1401862-4.1674878-2.087-6.51.151-7.412 6.6-14.04 10-17.023zm-4 27.218c1.2327611.2890055 2.4929747.4448978 3.759.465h.241c1.3463384-.0042637 2.6879886-.1588888 4-.461v3.461h-8zm-14 10.465h4c.5522847 0 1-.4477153 1-1s-.4477153-1-1-1h-3.858c.4545933-1.7606851 2.0395884-2.9931852 3.858-3h28c1.8184116.0068148 3.4034067 1.2393149 3.858 3h-25.858c-.5522847 0-1 .4477153-1 1s.4477153 1 1 1h26v3h-36zm-8-7c-.00020875-.2655413.10520544-.5202623.293-.708l4.586-4.584c.39049985-.3903819 1.02350015-.3903819 1.414 0 .3897159.3903851.3897159 1.0226149 0 1.413l-4 4c-.18779456.1877377-.29320875.4424587-.293.708v9.171h-2.00000031z"/><circle id="Oval" cx="30" cy="6" r="1"/></g></g></g></svg>